<?xml version="1.0" encoding="utf-8"?>
<!-- Source: https://github.com/jasondreyzehner/TSA-logo/  -->
<svg version="1.1" xmlns="http://www.w3.org/2000/svg" viewBox="0 0 602.253 381.051" enable-background="new 0 0 633.034 381.051"
	 xml:space="preserve" class="nav-icon">
	<path fill-rule="evenodd" d="M602.253,283.867c0,13.262-10.746,24.012-24.006,24.012H24.092c-13.259,0-24.007-10.75-24.007-24.012V97.276
							c0-13.262,10.748-24.012,24.007-24.012h554.155c13.26,0,24.006,10.75,24.006,24.012V283.867z
			 M12.907,139.583c-1.074,4.216,2.427,4.217,2.427,4.217c-3.501-0.001,57.517,0,57.517,0
								c4.751-0.001,11.753,6.615,8.322,16.342L30.682,290.627h80.528l49.02-130.921c6.271-15.906,6.152-16.582,30.827-16.627h226.337
								c7.748,0.003,8.484-0.193,11.816,5.25l48.73,80.902c1.646,4.278,0.645,6.613-4.689,6.613h-47.954l-20.324,54.783l179.638-0.034
								c3.955-0.08,6.008-3.725,4.562-7.997l-98.771-172.423c-4.809-7.061-12.146-11.064-22.812-10.657l-7.211,0.01L32.965,99.502h-6.252
								L12.907,139.583z
			 M340.3,290.627c0,0,6.7,0,14.254-15.764c5.221-10.896,18.541-48.021,21.34-59.029
								c5.166-20.327-22.118-32.583-22.118-32.583c-2.262-1.134-2.934-2.182-2.525-3.476l11.319-29.334h49.332
								c3.615,0.397,4.426,0.799,7.555,4.216l14.748,22.646c1.014,1.67,0.811,2.607,0.025,4.647l-40.326,108.677H340.3z
			 M307.198,290.604c0,0,9.971-0.171,11.592-0.302c8.6-0.691,13.664-2.388,20.273-10.354
								c7.186-8.659,24.764-54.644,25.539-65.323c0.814-11.199-5.44-17.623-14.006-22.513c-7.597-4.337-63.848-26.919-65.768-27.764
								s-3.141-2.637-3.641-5.512s0.722-7.632,0.722-7.632l-88.698,0.009c0,0-4.611,15.534-5.211,24.812
								c-0.467,7.227,3.827,10.056,6.451,11.919c3.439,2.443,86.344,37.998,89.127,39.686c3.812,2.312,7.126,10.004-4.001,10.005
								l-137.434,0.001l-19.844,52.968H307.198z"/>
	</g>
	<path d="M602.256,48.272c0,9.345-7.574,16.92-16.916,16.92H17c-9.342,0-16.917-7.575-16.917-16.92V16.92
							C0.083,7.576,7.657,0,17,0h568.34c9.342,0,16.916,7.576,16.916,16.92V48.272z"/>
	<path d="M602.255,364.224c0,9.346-7.572,16.921-16.914,16.921H17c-9.343,0-16.917-7.575-16.917-16.921V332.87
							c0-9.346,7.574-16.921,16.917-16.921h568.341c9.342,0,16.914,7.575,16.914,16.921V364.224z"/>
</svg>
